<svg xmlns="http://www.w3.org/2000/svg" width="698" height="564" viewBox="0 -209.4 698 564.4"><style>  .a{fill:#ddd; opacity: 0.5}</style><g class="a"><path d="M659.4-204.2l-0.9-4.1h-1.8l0.6 2.9L556.5-170v0.6c-0.2 2-16.1 193.7 8.1 259.2-5.5 6.6-74.4 89.3-100.6 141.4-7.1 4-155.3 87.6-185.3 117-9.8-0.9-184-15.9-237.1-5.5-2.1-0.5-18.1-4.6-41.4-9.4v1.8c24.2 4.9 40.6 9.4 41.1 9.5h0.2 0.2c53.8-10.7 235.4 5.4 237.2 5.5h0.5l0.3-0.3c29.6-29.6 183.9-116.2 185.4-117.2l0.3-0.2 0.2-0.3c27-53.8 100.1-140.9 100.9-141.7l0.3-0.5-0.2-0.5c-23.5-62.7-9.2-246.4-8.1-258.3L659.4-204.2z"/><path d="M425.9-208.3h-10.7c23 3.8 41.3 7.7 51.8 11.3 59.5 21 138.8 55.8 139.6 56.1l0.8-1.7c-0.8-0.3-80.2-35.1-139.7-56.1C458.7-201.7 444.1-205.1 425.9-208.3z"/><path d="M213.9-123.7c-39.6-17.5-101.4-55.8-146.1-84.7H64.4c44.8 29.1 108.4 68.6 148.8 86.3 63.3 27.9 115.9 54.4 182.6 100.9 62.1 43.2 167.3 110.7 168.5 111.6l0.9-1.5c-1.4-0.9-106.4-68.4-168.5-111.6C330-69.2 277.3-95.8 213.9-123.7z"/><path d="M275.6 56.7c-26.1-20.7-52.9-42-66.9-54.7C186-18.6 80.2-147.6 30.7-208.3h-2.3C77.4-148.1 184.6-17.4 207.5 3.3c14 12.7 40.9 34.2 67 54.9 29.8 23.6 60.6 48.2 72.2 59.8 21.6 21.6 116.2 113.6 117.3 114.7l1.4-1.2c-1.2-1.2-95.8-93.2-117.5-114.7C336.3 105 305.3 80.4 275.6 56.7z"/><path d="M132.5 116.9c-17-40.6-95.5-242.1-127.9-325.3H2.6c32.2 82.7 111 285.1 128.2 325.9 23.3 55.4 70.7 124.8 84.7 144.8 18.9 26.8 61.8 86.2 62.1 87l1.7-0.6c-0.3-0.9-43.4-60.4-62.4-87.4C203 241.5 155.8 172.1 132.5 116.9z"/><path d="M5.2 207.4c1.4 10.6 17 73 33 135.3 0.6 0 1.2 0 1.8 0C23.9 280.3 8.1 217.5 6.9 207.3c-0.9-6.9-1.2-19.2-1.5-33.3-0.5-23.6-1.2-54-5.1-79.6v14.7c2.3 21.9 2.9 45.5 3.4 64.7C4 188.2 4.4 200.4 5.2 207.4z"/><path d="M542.7-208.3c-3.7 17.6-6 32.5-6.1 34.2-2 3.7-40 72.2-40 109.5 0 36.8-5.1 103.1-5.4 107-1.8 3.7-33.1 64.4-43.6 87.3-10.7 23.5-27.1 63.3-27.3 63.6-0.3 0.6-33.3 61.8-90.5 81.4-57.2 19.6-99.2 11-99.7 10.9-0.5 0-46.2-3.7-105.7 0-56.9 3.5-94.6 8.6-98 9-1.7-0.8-12.1-5.2-25.9-9.8v2c14.7 4.9 25.3 9.7 25.5 9.7l0.3 0.2h0.3c0.3 0 39-5.5 98.1-9 59.3-3.7 104.9 0 105.2 0 0.5 0.2 42.8 8.9 100.6-10.9 58-19.9 91.1-81.7 91.6-82.4 0.2-0.5 16.6-40.3 27.3-63.6 10.7-23.3 43.4-86.6 43.7-87.3l0.2-0.3c0-0.8 5.5-69.6 5.5-107.3 0-37.6 39.6-108 39.9-108.7l0.2-0.3c0-0.3 2.3-15.9 6.3-34.7h-2.5V-208.3z"/><path d="M105.4-208.3c-3.1 5.5-5.8 11-7.2 15.6L55.1-174.7l-30.8 3.7-23.9 3.5v1.8l24.2-3.5 31-3.7 43.9-18.2 0.5-0.2 0.2-0.5c1.2-4.8 4.1-10.6 7.5-16.6H105.4z"/><path d="M511.4-208.3h-1.8c0.2 12.9 0.5 21.6 0.5 23.8-1.7 2.9-18.6 32.4-34 75-16.7 46.2-24.5 81.3-21.9 98.8 2.6 16.6 1.5 33.3 1.4 35.1-1.1 2.3-12.9 28.1-25.9 70.9-8.9 29.1-9.7 41.7-10.3 50.8-0.3 4.8-0.6 8.6-2 13.3-4 13.2-12 21.3-12 21.3-0.6 0.5-61.8 38.3-100.9 55.8-25.9 11.7-51.7 15-67.2 17.2-8.6 1.1-14.3 1.8-16.3 3.4l-5.1 3.8c-5.5-1.8-59-18.7-90-13.5-18.7 3.1-28.5 0.8-37.9-1.4-6.9-1.7-14.1-3.4-24.7-2.8-21.9 1.2-46.5 6.9-49.5 11.7l-0.2 0.2c-1.8-0.9-5.8-2.8-13.3-4.8v2c9.8 2.8 13.5 4.9 13.5 5.1l2.1 1.4-0.8-2.5c0-0.2 0.2-0.3 0.2-0.3 2.5-3.7 25.8-9.5 48.2-10.7 10.3-0.6 17 1.1 24.2 2.6 9.7 2.3 19.6 4.6 38.6 1.4 32.2-5.4 89.1 13.3 89.6 13.6l0.5 0.2 5.8-4.4c1.7-1.2 7.7-2 15.3-3.1 15.5-2.1 41.6-5.5 67.6-17.3 39.1-17.5 100.4-55.7 101.2-56.1 0.3-0.3 8.4-8.4 12.6-22.2 1.5-4.9 1.7-8.7 2-13.6 0.6-9 1.4-21.5 10.3-50.5 13.5-44.5 25.8-70.5 25.9-70.9l0.2-0.3c0-0.2 1.4-18.1-1.4-35.7-2.6-17.2 5.1-51.8 21.8-97.8 16.1-44.5 33.9-74.5 34-74.8l0.2-0.2v-0.3C511.9-184.7 511.6-193.9 511.4-208.3z"/><path d="M553.2-208.3c-1.1 19.9-4.8 38.6-4.9 38.8l1.8 0.3c0-0.3 3.8-19 4.9-39.3h-1.8V-208.3z"/><path d="M88.2-208.3c-1.8 4-3.1 7.2-3.5 8.3-11.7 4.4-19.3 28.8-20.5 32.8-14 4.1-29.6 25.8-32.4 29.6-2-0.8-8.3-2.8-17.3-3.8-1.5-0.2-3.4-0.3-5.4-0.3-2.8 0-5.8 0.2-8.7 0.5v1.8c3.1-0.3 6-0.5 8.7-0.5 2 0 3.7 0.2 5.2 0.3 10.6 1.4 17.5 4 17.5 4l0.6 0.3 0.5-0.6c0.2-0.3 17.8-25.8 32.2-29.6l0.5-0.2 0.2-0.5c0.2-0.3 8.1-28.2 19.9-32.1l0.5-0.2 0.2-0.5c0-0.3 1.5-4.1 4-9.5H88.2z"/><path d="M123-208.3c-6 14.6-10.3 29.3-11.2 32.7-17.8 0.8-26.1 27.9-27.3 32.8-12.3 0.9-41.4 23.6-45.7 27.1-5.4-3.2-12.6-4.9-21.5-4.9-5.8 0-11.7 0.8-17 1.7v1.8c5.2-0.9 11.2-1.7 17-1.7 8.9 0 15.9 1.7 21.2 5.1l0.6 0.3 0.5-0.5c0.3-0.3 34-27.1 45.9-27.1h0.8l0.2-0.8c0.2-0.3 8.3-32.1 26.4-32.1h0.8l0.2-0.6c-0.2-0.5 4.6-17.5 11.3-33.9H123z"/><path d="M150.9-208.3c-9.8 18.7-17.3 37-18.6 39.7-19.3 8-32.4 35.7-34 39.6-21.6 6.4-52.8 30.5-56.7 33.7-11-4.9-27.9-6.9-41.3-7.7v1.8c13.5 0.8 30.2 2.8 40.9 7.7l0.5 0.3 0.5-0.3c0.3-0.3 34.2-27.3 57-33.9l0.5-0.2 0.2-0.5c0.2-0.3 13.8-31.1 33.6-39.1l0.3-0.2 0.2-0.3c0.2-0.3 8.3-20.4 19-40.8H150.9z"/><path d="M490.6-208.3c0.3 13.8 0.3 23.6 0.3 25.2-2 4.1-35.1 72.4-50.9 112.7-15.3 39.3-21.2 64.4-21.8 67.2-3.1 3.1-40.3 41.9-47.4 78.5-6.3 33.4-12.9 46-14.1 48.3-6.7-0.3-73.3-2.3-116.4 18.3-42.6 20.5-76.1 36.3-79.7 38-5.2-1.5-66.7-20.1-96.3-23.6-3.8-0.5-7.7-0.6-11.3-0.6-23.9 0-43.9 8.3-46.9 9.7-0.8-0.5-2.8-1.4-5.8-2.8v2c3.5 1.5 5.4 2.5 5.4 2.6l0.5 0.2 0.5-0.2c0.3-0.2 27.5-12.6 57.7-9 30.5 3.5 95.5 23.5 96.3 23.6l0.3 0.2 0.3-0.2c0.3-0.2 35.1-16.6 80.1-38.2 44.8-21.5 115.3-18.1 115.9-18.1h0.5l0.3-0.5c0.3-0.5 7.5-11.5 14.7-49.4 7.2-37.4 46.6-77.3 47.1-77.8l0.2-0.2v-0.3c0-0.3 5.7-25.9 21.8-67.2 16.1-41.4 50.6-112.1 50.9-112.7l0.2-0.5c0-0.2 0-10.4-0.3-25.5h-1.7V-208.3z"/><path d="M174.7-208.3c-8.9 14.4-19.8 33.1-28.2 51.2-2.6 2.5-32.5 30.1-37.3 42.6-3.7 2.3-42.9 25.9-57.2 35.4-1.7 1.1-21.8 4.3-45.5 4.3-2.1 0-4.1 0-6.1-0.2v1.8c2 0 4.1 0.2 6.1 0.2 22.9 0 44.2-3.1 46.6-4.6 14.7-9.8 56.9-35.3 57.2-35.4l0.3-0.2 0.2-0.5c4.4-12.4 36.8-42 37.1-42.3l0.2-0.3c8.6-18.6 19.8-37.7 28.8-52.1H174.7z"/><path d="M189.2-208.3c-15.3 23.8-31.9 55.8-33.6 59.3-17.3 12.3-35.7 44.6-38 48.9C102.9-98.5 62.1-67.9 58-64.6 48-65.9 18.6-62.5 0.3-60.3v1.8c18.4-2.3 48.5-5.7 57.5-4.4h0.3l0.3-0.2c0.5-0.3 45.4-34.4 59.5-35.3h0.5l0.3-0.5c0.2-0.3 20.1-36.3 37.9-48.8l0.3-0.3c0.3-0.5 18.2-35.6 34.4-60.4H189.2z"/><path d="M212.6-208.3c-17.9 24.5-34 61.8-36 66.6-14.4 4.4-44.9 48.9-48 53.5-15.2 2.3-56.3 33.9-61.3 38-10.4-5.4-45.7-0.6-66.7 2.8v1.8c21.2-3.5 57.2-8.3 66.4-2.8l0.6 0.3 0.5-0.5c0.5-0.3 46.3-36.2 61.3-38h0.5l0.3-0.3c0.3-0.5 33.6-49.8 47.7-53.2l0.5-0.2 0.2-0.5c0.2-0.6 17.8-41.9 37-67.6H212.6z"/><path d="M236.8-208.3c-21.5 27.6-42.8 70.7-44.9 74.8-25 17.3-51.1 56.3-53.5 59.8-19.5 6.4-63 35.4-67 38.2-14.3 0-50.8 3.7-71 5.8v1.8c20.4-2.1 57.4-5.8 71.3-5.8h0.3l0.3-0.2c0.5-0.3 47.4-31.9 67-38l0.3-0.2 0.2-0.3c0.3-0.5 27.5-41.9 53.4-59.8l0.2-0.2 0.2-0.2c0.5-0.8 23.5-47.5 45.9-75.9H236.8z"/><path d="M260.2-208.3c-20.9 27.8-45.1 79.7-47.4 84.8-31.9 18.3-59 60.3-61.6 64.4-20.5 4.8-68.2 40.3-72.5 43.6C60.4-14.8 20.2-8.8 0.3-5.6v1.8c19.8-3.1 60.6-9.4 78.7-10h0.3l0.2-0.2c0.5-0.3 52-39.1 72.4-43.6l0.3-0.2 0.2-0.3c0.3-0.5 28.5-45.5 61.5-64.3l0.3-0.2 0.2-0.3c0.3-0.8 26.7-57.7 48-85.9h-2V-208.3z"/><path d="M281.1-208.3c-11.7 22.7-31.4 63.8-38.3 94.9-4.4 3.1-57.5 41.1-73.5 69.8-4.3 1.4-45.7 14.6-84.3 44.5C80.8 1 37.4 1.9 0.3 8.5v1.8c38.6-6.9 84.5-7.8 85-7.8h0.3l0.3-0.2c40.3-31.4 83.9-44.3 84.3-44.5l0.3-0.2 0.2-0.3c16.1-29.4 72.8-69.3 73.5-69.8l0.3-0.2v-0.3c6.9-31.3 27-73.2 38.6-95.7h-2V-208.3z"/><path d="M301-208.3c-3.8 6.3-8.4 15.2-13.6 27.8-12.7 30.7-18.6 78.7-19.2 84.3-4.8 2.1-40.3 17.8-48.9 27.3-8.6 9.5-31.4 43.4-34.4 47.8-2.3 0-12.1 0.5-33.6 9.2C128.4-2.4 97.7 24 94.2 27.1 90.3 26.3 62 21.1 43.4 24.5 28.8 27.1 9.7 35.2 0.5 39.3v2C9.4 37.3 29 29.1 43.7 26.3c19.6-3.5 50.3 2.6 50.6 2.8l0.5 0.2 0.3-0.3c0.3-0.3 33-29.1 57-39 23.9-9.8 33.1-9 33.3-9h0.6l0.3-0.5c0.3-0.3 25.6-38.3 34.5-48.2 8.9-9.8 48.5-26.8 48.8-27.1l0.5-0.2v-0.5c0-0.5 5.7-52.1 19-84.3 5.5-13 10.3-22.2 14.3-28.5H301z"/><path d="M317.9-208.3h-2c-6.9 18.3-16.3 47.7-15.2 68.2 1.7 29.3-2.9 56.4-3.5 60.3-4.8 2.3-49.1 24.5-66.2 39.9-16.9 15.2-26.1 31.3-27.3 33.6-3.8 1.7-43.7 19.9-64.4 35.4-19.9 14.9-32.4 22.4-34.2 23.5-4.4-0.5-56.4-5.4-79.9-4.4-11.2 0.5-19.3 2-24.8 3.5v2c5.5-1.5 13.6-3.2 25-3.5 24.2-0.9 79.4 4.4 79.9 4.6h0.3l0.3-0.2c0.2 0 13-7.5 34.7-23.8 21.5-16.1 64-35.1 64.4-35.4l0.3-0.2 0.2-0.3c0.2-0.2 9.2-17.3 27.1-33.4 17.9-16.1 65.6-39.6 66.2-39.9l0.5-0.2 0.2-0.5c0-0.3 5.5-29.6 3.7-61.2C301.5-160.6 311.2-190.2 317.9-208.3z"/><path d="M341.2-208.3h-1.8c-9.8 35.6-32.2 119.9-28.5 136.9-5.5 4-53.8 39.3-90.9 80.2-3.8 2-83.1 43.9-104.7 63.9C109.3 72 47.8 64.3 0.5 72v1.8c49.2-8 114.3 0.8 114.9 0.9h0.5l0.3-0.3c21.5-20.1 104-63.5 104.9-63.9l0.3-0.2c39.1-43.1 90.8-80.1 91.2-80.4l0.5-0.3-0.2-0.6C308.4-86.1 331.4-172.8 341.2-208.3z"/><path d="M361.5-208.3c-4.4 13-13.3 41.4-19.2 73-7.7 40.5-10.6 70.9-10.9 74.7-4 2.9-43.1 32.4-61.2 50.3-17.5 17.6-27.1 36.5-28.7 39.4-2.8 0.8-20.4 5.8-61.2 23.2-41.1 17.5-58.7 31.7-61.3 33.9-3.2-0.6-23.9-4.6-49.4-4.6-6 0-11.8 0.2-17.3 0.6-29.9 2.5-47.4 6.7-52 8v1.8c3.5-1.1 21.2-5.5 52.3-8 5.5-0.5 11.3-0.6 17.2-0.6 27.3 0 49.2 4.6 49.4 4.8l0.5 0.2 0.3-0.3c0.2-0.2 16.9-15.2 61.2-33.9 44.5-18.9 61-23.2 61.2-23.2l0.5-0.2 0.2-0.5c0.2-0.2 9.7-20.5 28.5-39.3 18.9-18.9 60.9-50.1 61.3-50.5l0.3-0.3v-0.5c0-0.3 2.8-31.9 10.9-75 6.1-31.9 15.2-60.4 19.5-73.2H361.5z"/><path d="M399.3-208.3c-1.5 5.1-10.9 34.5-25.6 59-15.9 26.7-22.9 96.9-23.3 102.4-1.7 2.3-18.9 25.2-40.6 40.5-21.9 15.5-44.2 54.4-46.5 58.6-3.7 0.9-31.4 7.5-53.1 17.8-22.2 10.4-76.7 35.1-80.4 36.8-3.5-0.2-48.9-1.2-75 1.4-25.6 2.6-50.1 8.7-53.1 9.5-0.3-0.2-0.9-0.3-1.8-0.6v2c0.9 0.3 1.4 0.5 1.4 0.5l0.3 0.2h0.3c0.3 0 26.2-6.9 53.1-9.5 27-2.8 74.4-1.4 75-1.4h0.2l0.2-0.2c0.6-0.3 57.5-26.1 80.5-36.8 22.9-10.7 52.8-17.6 53.1-17.6l0.5-0.2 0.2-0.3c0.3-0.5 23.3-42.3 46.2-58.4 23-16.3 40.9-40.9 41.1-41.1l0.2-0.2v-0.3c0-0.8 7.1-75.1 23-102 15.9-25.9 25.5-57 26.4-60.1H399.3z"/><path d="M462.1-208.3h-2.1c3.1 5.4 5.4 8.9 6.3 10.4-4.6 4-34.2 30.1-55.5 65-22.1 36.3-33.1 96.8-34.2 102.3-2.8 1.8-21.8 14.4-38.2 39.6-16.6 25.5-26.2 71.8-27.3 77.4-7.1 1.5-75.5 16.9-112.7 25.8-36.3 8.7-53.5 24.7-56 27.1-5.7-0.9-62.1-9.5-81.6-9.5-19.5 0-51.7 12-55.8 13.5-0.6-0.3-2.3-1.2-4.6-2.5v2c2.6 1.4 4 2.1 4 2.1l0.3 0.2 0.5-0.2c0.3-0.2 35.6-13.6 55.7-13.6 20.1 0 81.1 9.5 81.7 9.5l0.5 0.2 0.3-0.3c0.2-0.2 16.6-17.6 55.5-27 39.1-9.5 112.6-25.8 113.2-25.9l0.6-0.2 0.2-0.6c0.2-0.5 9.7-50.6 27.1-77.4 17.5-26.8 37.7-39.1 37.9-39.3l0.3-0.2v-0.5c0.2-0.6 11.2-64.4 34-102 22.9-37.6 55.4-64.9 55.7-65l0.6-0.5-0.5-0.6C468-198.4 465.6-202 462.1-208.3z"/><path d="M447.8 12.8c-0.2 0.2-22.2 15.5-37.1 41.3-14.3 24.5-32.4 87.7-34 93.9-4.6 1.4-40.8 11.5-97.7 21.6-57.5 10.3-86.8 35.1-90.2 38.2-5.5-0.8-62.3-8.4-108.7-13.6-45.9-5.1-70.8 10.1-73.9 12.3-0.8-0.2-2.6-0.6-5.7-1.2v1.8c3.7 0.9 5.7 1.2 5.7 1.2l0.5 0.2 0.3-0.3c0.3-0.2 24.8-17.5 73-12.1 48.6 5.4 108.6 13.5 109.2 13.6h0.5l0.3-0.3c0.3-0.3 29.1-27.3 89.6-38 60.7-10.7 98-21.8 98.3-21.9l0.5-0.2 0.2-0.5c0.2-0.6 19.2-68.4 34-93.9 14.7-25.5 36.3-40.5 36.5-40.6L447.8 12.8z"/><path d="M417.1-208.3c-18.2 47.1-21.5 178.8-21.6 186-3.5 4.6-55.8 72.5-63.9 126.4-6.1 0.6-49.5 5.8-91.2 37.9l1.1 1.4c44.3-34 90.5-37.6 90.9-37.6h0.8l0.2-0.8c8.1-55.1 63.3-125.8 63.9-126.5l0.2-0.3v-0.3c0-1.4 2.9-139.2 21.6-186.5h-1.8V-208.3z"/></g></svg>